<svg xmlns="http://www.w3.org/2000/svg" style="display:none">
    <symbol id="vk" viewBox="0 0 21 12">
        <path d="M20.4958 10.1846C20.472 10.1333 20.4498 10.0907 20.4291 10.0566C20.088 9.44223 19.4361 8.68809 18.4738 7.79399L18.4535 7.77352L18.4433 7.76348L18.433 7.75319H18.4227C17.9859 7.33685 17.7093 7.05692 17.5935 6.91359C17.3816 6.64058 17.3341 6.36423 17.45 6.08422C17.5318 5.87266 17.8392 5.42589 18.3713 4.74327C18.6513 4.38151 18.873 4.09157 19.0367 3.87313C20.2175 2.30331 20.7294 1.30017 20.5724 0.863328L20.5114 0.761243C20.4704 0.699784 20.3646 0.643559 20.1942 0.592284C20.0234 0.541116 19.805 0.532654 19.5388 0.566754L16.5905 0.587121C16.5427 0.570196 16.4745 0.571774 16.3857 0.592284C16.2969 0.612794 16.2525 0.623085 16.2525 0.623085L16.2012 0.648723L16.1605 0.679524C16.1264 0.699891 16.0888 0.735712 16.0478 0.786916C16.0071 0.837941 15.973 0.897822 15.9457 0.966058C15.6247 1.79188 15.2598 2.55969 14.8502 3.26944C14.5976 3.69266 14.3657 4.05945 14.1539 4.37C13.9424 4.68045 13.7649 4.90919 13.6217 5.05581C13.4783 5.20257 13.3488 5.32014 13.2326 5.40896C13.1165 5.49781 13.0279 5.53536 12.9666 5.52162C12.9051 5.50789 12.8472 5.49426 12.7923 5.48064C12.6969 5.41918 12.6201 5.3356 12.5621 5.22982C12.504 5.12404 12.4648 4.9909 12.4444 4.83051C12.424 4.67002 12.4119 4.53197 12.4085 4.4159C12.4053 4.29997 12.4068 4.136 12.4137 3.92444C12.4208 3.71278 12.424 3.56957 12.424 3.49448C12.424 3.23509 12.429 2.95358 12.4392 2.64987C12.4495 2.34616 12.4579 2.10552 12.4649 1.92825C12.4718 1.75079 12.475 1.56304 12.475 1.36511C12.475 1.16718 12.463 1.01195 12.4392 0.899292C12.4157 0.786772 12.3796 0.677552 12.332 0.571666C12.2841 0.465888 12.214 0.384062 12.1221 0.325974C12.03 0.267957 11.9155 0.221917 11.7792 0.187709C11.4174 0.105847 10.9567 0.0615639 10.397 0.0546793C9.12761 0.0410536 8.31197 0.123023 7.95024 0.300479C7.80692 0.375456 7.67723 0.4779 7.56127 0.607487C7.43838 0.757692 7.42124 0.839662 7.50995 0.853144C7.91951 0.914496 8.20945 1.06126 8.3801 1.29329L8.44159 1.41624C8.48943 1.50495 8.53719 1.66201 8.58498 1.88719C8.63271 2.11237 8.66351 2.36147 8.67707 2.63434C8.71113 3.13265 8.71113 3.5592 8.67707 3.91405C8.64289 4.26903 8.61062 4.54538 8.57982 4.74331C8.54902 4.94124 8.50298 5.10163 8.44159 5.22444C8.3801 5.34729 8.33918 5.42237 8.31867 5.44962C8.2982 5.47687 8.28113 5.49405 8.26758 5.50079C8.17887 5.53478 8.08661 5.5521 7.99112 5.5521C7.89549 5.5521 7.77953 5.50427 7.64306 5.40867C7.50662 5.31308 7.36502 5.18177 7.21826 5.01453C7.07149 4.84726 6.90598 4.61351 6.72164 4.31324C6.53744 4.01297 6.34632 3.6581 6.14839 3.24861L5.98463 2.95164C5.88226 2.7606 5.74242 2.48242 5.56496 2.11736C5.3874 1.75215 5.23045 1.39889 5.09401 1.05764C5.03947 0.914316 4.95754 0.805203 4.84836 0.730119L4.79712 0.699317C4.76305 0.672066 4.70837 0.643129 4.63336 0.612292C4.55824 0.581491 4.47985 0.559403 4.39788 0.545813L1.59282 0.56618C1.30618 0.56618 1.11169 0.631117 1.00929 0.760812L0.968301 0.822163C0.947827 0.856335 0.9375 0.91091 0.9375 0.98603C0.9375 1.06111 0.957974 1.15327 0.998959 1.26238C1.40845 2.22478 1.85376 3.15294 2.33489 4.047C2.81602 4.94106 3.23411 5.66125 3.58891 6.20692C3.94379 6.75299 4.30552 7.26836 4.67409 7.75279C5.04267 8.2374 5.28664 8.54796 5.40601 8.6844C5.52552 8.82108 5.61939 8.92327 5.68763 8.99151L5.94361 9.23717C6.10741 9.401 6.34793 9.59721 6.66531 9.8258C6.98275 10.0545 7.33418 10.2797 7.71979 10.5017C8.10547 10.7233 8.55415 10.9042 9.06608 11.0441C9.57794 11.1841 10.0761 11.2403 10.5607 11.2132H11.7381C11.9768 11.1926 12.1577 11.1175 12.2807 10.9879L12.3214 10.9366C12.3488 10.8958 12.3745 10.8326 12.3981 10.7474C12.4221 10.6621 12.434 10.5681 12.434 10.4659C12.427 10.1725 12.4493 9.90802 12.5004 9.67258C12.5514 9.43721 12.6096 9.25976 12.6746 9.14025C12.7396 9.02084 12.813 8.92008 12.8946 8.8384C12.9765 8.75654 13.0348 8.70695 13.069 8.68988C13.103 8.67271 13.1301 8.66105 13.1506 8.65406C13.3144 8.59949 13.5072 8.65234 13.7292 8.81287C13.951 8.97326 14.1591 9.1713 14.3537 9.40666C14.5483 9.64224 14.782 9.90655 15.0549 10.2C15.328 10.4935 15.5669 10.7117 15.7715 10.8552L15.9762 10.9781C16.1129 11.06 16.2903 11.1351 16.5088 11.2034C16.7268 11.2716 16.9179 11.2886 17.0819 11.2545L19.7026 11.2136C19.9618 11.2136 20.1635 11.1707 20.3066 11.0856C20.4499 11.0003 20.5351 10.9063 20.5626 10.804C20.59 10.7017 20.5914 10.5856 20.5678 10.4558C20.5435 10.3263 20.5196 10.2358 20.4958 10.1846Z"/>
    </symbol>

    <symbol id="instagram" viewBox="0 0 169.063 169.063">
        <path d="M122.406,0H46.654C20.929,0,0,20.93,0,46.655v75.752c0,25.726,20.929,46.655,46.654,46.655h75.752 c25.727,0,46.656-20.93,46.656-46.655V46.655C169.063,20.93,148.133,0,122.406,0z M154.063,122.407 c0,17.455-14.201,31.655-31.656,31.655H46.654C29.2,154.063,15,139.862,15,122.407V46.655C15,29.201,29.2,15,46.654,15h75.752 c17.455,0,31.656,14.201,31.656,31.655V122.407z"/>
        <path d="M84.531,40.97c-24.021,0-43.563,19.542-43.563,43.563c0,24.02,19.542,43.561,43.563,43.561s43.563-19.541,43.563-43.561 C128.094,60.512,108.552,40.97,84.531,40.97z M84.531,113.093c-15.749,0-28.563-12.812-28.563-28.561 c0-15.75,12.813-28.563,28.563-28.563s28.563,12.813,28.563,28.563C113.094,100.281,100.28,113.093,84.531,113.093z"/>
        <path d="M129.921,28.251c-2.89,0-5.729,1.17-7.77,3.22c-2.051,2.04-3.23,4.88-3.23,7.78c0,2.891,1.18,5.73,3.23,7.78 c2.04,2.04,4.88,3.22,7.77,3.22c2.9,0,5.73-1.18,7.78-3.22c2.05-2.05,3.22-4.89,3.22-7.78c0-2.9-1.17-5.74-3.22-7.78 C135.661,29.421,132.821,28.251,129.921,28.251z"/>
    </symbol>

    <symbol id="mail" viewBox="0 0 550.795 550.795">
        <path d="M501.613,491.782c12.381,0,23.109-4.088,32.229-12.16L377.793,323.567c-3.744,2.681-7.373,5.288-10.801,7.767 c-11.678,8.604-21.156,15.318-28.434,20.129c-7.277,4.822-16.959,9.737-29.045,14.755c-12.094,5.024-23.361,7.528-33.813,7.528 h-0.306h-0.306c-10.453,0-21.72-2.503-33.813-7.528c-12.093-5.018-21.775-9.933-29.045-14.755 c-7.277-4.811-16.75-11.524-28.434-20.129c-3.256-2.387-6.867-5.006-10.771-7.809L16.946,479.622 c9.119,8.072,19.854,12.16,32.234,12.16H501.613z"/>
        <path d="M31.047,225.299C19.37,217.514,9.015,208.598,0,198.555V435.98l137.541-137.541 C110.025,279.229,74.572,254.877,31.047,225.299z"/>
        <path d="M520.059,225.299c-41.865,28.336-77.447,52.73-106.75,73.195l137.486,137.492V198.555 C541.98,208.396,531.736,217.306,520.059,225.299z"/>
        <path d="M501.613,59.013H49.181c-15.784,0-27.919,5.33-36.42,15.979C4.253,85.646,0.006,98.97,0.006,114.949 c0,12.907,5.636,26.892,16.903,41.959c11.267,15.061,23.256,26.891,35.961,35.496c6.965,4.921,27.969,19.523,63.012,43.801 c18.917,13.109,35.368,24.535,49.505,34.395c12.05,8.396,22.442,15.667,31.022,21.701c0.985,0.691,2.534,1.799,4.59,3.269 c2.215,1.591,5.018,3.61,8.476,6.107c6.659,4.816,12.191,8.709,16.597,11.683c4.4,2.975,9.731,6.298,15.985,9.988 c6.249,3.685,12.143,6.456,17.675,8.299c5.533,1.842,10.655,2.766,15.367,2.766h0.306h0.306c4.711,0,9.834-0.924,15.368-2.766 c5.531-1.843,11.42-4.608,17.674-8.299c6.248-3.69,11.572-7.02,15.986-9.988c4.406-2.974,9.938-6.866,16.598-11.683 c3.451-2.497,6.254-4.517,8.469-6.102c2.057-1.476,3.605-2.577,4.596-3.274c6.684-4.651,17.1-11.892,31.104-21.616 c25.482-17.705,63.01-43.764,112.742-78.281c14.957-10.447,27.453-23.054,37.496-37.803c10.025-14.749,15.051-30.22,15.051-46.408 c0-13.525-4.873-25.098-14.598-34.737C526.461,63.829,514.932,59.013,501.613,59.013z"/>
    </symbol>

    <symbol id="basket" viewBox="0 0 22 24">
        <path d="M19.9994 6.54825C19.9921 6.45056 19.9104 6.375 19.8125 6.375H16.4375V5.4375C16.4375 2.43919 13.9981 0 11 0C8.00185 0 5.56248 2.43919 5.56248 5.4375V6.375H2.18748C2.0896 6.375 2.00785 6.45056 2.00054 6.54825L0.688038 23.7983C0.6841 23.8502 0.701913 23.9016 0.737538 23.9398C0.772975 23.9783 0.82285 24 0.874975 24H21.125C21.1771 24 21.227 23.9783 21.2624 23.94C21.2979 23.9018 21.3159 23.8504 21.3119 23.7984L19.9994 6.54825ZM7.06248 5.4375C7.06248 3.26644 8.82873 1.5 11 1.5C13.1712 1.5 14.9375 3.26644 14.9375 5.4375V6.375H7.06248V5.4375ZM6.31248 11.625C5.27841 11.625 4.43748 10.7839 4.43748 9.75C4.43748 9.00169 4.81248 8.32744 5.56248 8.03156V9.75C5.56248 10.1636 5.89904 10.5 6.31248 10.5C6.72591 10.5 7.06248 10.1636 7.06248 9.75V8.03269C7.81248 8.32856 8.18748 9.00788 8.18748 9.75C8.18748 10.7839 7.34654 11.625 6.31248 11.625ZM15.6875 11.625C14.6534 11.625 13.8125 10.7839 13.8125 9.75C13.8125 9.00169 14.1875 8.32744 14.9375 8.03156V9.75C14.9375 10.1636 15.274 10.5 15.6875 10.5C16.1009 10.5 16.4375 10.1636 16.4375 9.75V8.03269C17.1875 8.32856 17.5625 9.00788 17.5625 9.75C17.5625 10.7839 16.7215 11.625 15.6875 11.625Z"/>
    </symbol>

    <symbol id="phone" viewBox="0 0 34 34">
        <path d="M33.2377 26.87L27.987 21.6186C26.9411 20.577 25.2092 20.6086 24.1269 21.6913L21.4815 24.3361C21.3144 24.244 21.1414 24.1478 20.9595 24.0457C19.289 23.1201 17.0026 21.8514 14.5967 19.4437C12.1836 17.0309 10.9138 14.741 9.98532 13.0694C9.88735 12.8923 9.79348 12.7216 9.70078 12.5594L11.4762 10.7867L12.3491 9.91272C13.433 8.82848 13.4629 7.09701 12.4195 6.05233L7.16873 0.800393C6.12532 -0.242825 4.39258 -0.211177 3.30863 0.873066L1.82879 2.36141L1.86923 2.40156C1.37302 3.03471 0.958368 3.76497 0.649798 4.55246C0.365355 5.30205 0.188262 6.01736 0.107286 6.73413C-0.586043 12.482 2.04056 17.7351 9.16882 24.8635C19.0222 34.7162 26.9628 33.9719 27.3054 33.9355C28.0514 33.8464 28.7665 33.6681 29.4931 33.3859C30.2738 33.0809 31.0035 32.6669 31.6363 32.1717L31.6686 32.2005L33.1678 30.7324C34.2495 29.6484 34.2807 27.9163 33.2377 26.87Z"/>
    </symbol>

    <symbol id="city" viewBox="0 0 34 34">
        <path d="M32.8663 6.23336H31.7329V4.53336C31.7329 4.22058 31.479 3.96671 31.1663 3.96671H27.7663C27.4535 3.96671 27.1996 4.22058 27.1996 4.53336V6.23336H26.0663C25.7535 6.23336 25.4996 6.48723 25.4996 6.8V15.8666H24.933V14.1666C24.933 13.8539 24.6791 13.6 24.3663 13.6H23.7996V13.0334C23.7996 12.7206 23.5458 12.4667 23.233 12.4667C22.9202 12.4667 22.6663 12.7206 22.6663 13.0334V13.6H22.0996C21.7869 13.6 21.533 13.8539 21.533 14.1666V15.8666H19.833V4.53336C19.833 4.22058 19.5791 3.96671 19.2663 3.96671H17.5663V0.566711C17.5663 0.253871 17.3124 0 16.9996 0H10.1996C9.88686 0 9.63299 0.253871 9.63299 0.566645V3.96664H7.93299C7.62021 3.96664 7.36634 4.22052 7.36634 4.53329V19.2666H6.23299V17.5666C6.23299 17.2539 5.97911 17 5.66634 17H2.26634C1.95357 17 1.6997 17.2539 1.6997 17.5666V19.2666H1.13305C0.820277 19.2666 0.566406 19.5205 0.566406 19.8333V33.4333C0.566406 33.7461 0.820277 33.9999 1.13305 33.9999H7.93305H12.4664H26.0664H32.8664C33.1792 33.9999 33.4331 33.7461 33.4331 33.4333V6.8C33.433 6.48723 33.1791 6.23336 32.8663 6.23336ZM16.433 6.8C16.433 6.48723 16.6869 6.23336 16.9996 6.23336C17.3124 6.23336 17.5663 6.48723 17.5663 6.8V15.8666H16.4329V6.8H16.433ZM14.1663 2.83336C14.1663 2.52058 14.4201 2.26671 14.7329 2.26671C15.0457 2.26671 15.2996 2.52058 15.2996 2.83336V4.53336C15.2996 4.84613 15.0457 5.1 14.7329 5.1C14.4201 5.1 14.1663 4.84613 14.1663 4.53336V2.83336ZM14.1663 6.8C14.1663 6.48723 14.4201 6.23336 14.7329 6.23336C15.0457 6.23336 15.2996 6.48723 15.2996 6.8V15.8666H14.1662V6.8H14.1663ZM11.8996 2.83336C11.8996 2.52058 12.1535 2.26671 12.4663 2.26671C12.779 2.26671 13.0329 2.52058 13.0329 2.83336V4.53336C13.0329 4.84613 12.779 5.1 12.4663 5.1C12.1535 5.1 11.8996 4.84613 11.8996 4.53336V2.83336ZM9.63299 6.8C9.63299 6.48723 9.88686 6.23336 10.1996 6.23336C10.5124 6.23336 10.7663 6.48723 10.7663 6.8V19.2666H9.63292V6.8H9.63299ZM11.8996 31.7334H10.1996C9.88686 31.7334 9.63299 31.4795 9.63299 31.1667C9.63299 30.8539 9.88686 30.6001 10.1996 30.6001H11.8996V31.7334ZM11.8996 29.4666H10.1996C9.88686 29.4666 9.63299 29.2128 9.63299 28.9C9.63299 28.5872 9.88686 28.3334 10.1996 28.3334H11.8996V29.4666ZM11.8996 27.2H10.1996C9.88686 27.2 9.63299 26.9461 9.63299 26.6334C9.63299 26.3206 9.88686 26.0667 10.1996 26.0667H11.8996V27.2ZM11.8996 24.9334H10.1996C9.88686 24.9334 9.63299 24.6795 9.63299 24.3667C9.63299 24.0539 9.88686 23.8001 10.1996 23.8001H11.8996V24.9334ZM11.8996 21.5334H7.93299C7.62021 21.5334 7.36634 21.7872 7.36634 22.1V32.8666H1.69963V20.4H2.26627H5.66627H7.93292H10.1996H11.8996V21.5334ZM11.8996 16.4334V6.8C11.8996 6.48723 12.1535 6.23336 12.4663 6.23336C12.779 6.23336 13.0329 6.48723 13.0329 6.8V15.8666H12.4663C12.1535 15.8666 11.8996 16.1205 11.8996 16.4334ZM25.4996 32.8666H24.3663V18.7C24.3663 18.3872 24.1124 18.1334 23.7996 18.1334C23.4869 18.1334 23.233 18.3872 23.233 18.7V32.8666H22.0996V18.7C22.0996 18.3872 21.8458 18.1334 21.533 18.1334C21.2202 18.1334 20.9663 18.3872 20.9663 18.7V32.8666H19.833V18.7C19.833 18.3872 19.5791 18.1334 19.2663 18.1334C18.9536 18.1334 18.6997 18.3872 18.6997 18.7V32.8666H17.5663V18.7C17.5663 18.3872 17.3125 18.1334 16.9997 18.1334C16.6869 18.1334 16.4331 18.3872 16.4331 18.7V32.8666H15.2996V18.7C15.2996 18.3872 15.0458 18.1334 14.733 18.1334C14.4202 18.1334 14.1663 18.3872 14.1663 18.7V32.8666H13.033V31.1666V28.9V26.6334V24.3667V22.1V19.8334V17H14.733H16.9996H19.2663H22.0996H24.3663H25.4996V32.8666ZM28.8996 30.7105C28.8996 31.0233 28.6458 31.2771 28.333 31.2771C28.0202 31.2771 27.7663 31.0233 27.7663 30.7105V29.5771C27.7663 29.2644 28.0202 29.0105 28.333 29.0105C28.6458 29.0105 28.8996 29.2644 28.8996 29.5771V30.7105ZM28.8996 27.3105C28.8996 27.6233 28.6458 27.8771 28.333 27.8771C28.0202 27.8771 27.7663 27.6233 27.7663 27.3105V26.1771C27.7663 25.8644 28.0202 25.6105 28.333 25.6105C28.6458 25.6105 28.8996 25.8644 28.8996 26.1771V27.3105ZM28.8996 23.9105C28.8996 24.2233 28.6458 24.4771 28.333 24.4771C28.0202 24.4771 27.7663 24.2233 27.7663 23.9105V22.7771C27.7663 22.4644 28.0202 22.2105 28.333 22.2105C28.6458 22.2105 28.8996 22.4644 28.8996 22.7771V23.9105ZM28.8996 20.5105C28.8996 20.8233 28.6458 21.0771 28.333 21.0771C28.0202 21.0771 27.7663 20.8233 27.7663 20.5105V19.3771C27.7663 19.0644 28.0202 18.8105 28.333 18.8105C28.6458 18.8105 28.8996 19.0644 28.8996 19.3771V20.5105ZM28.8996 17.1105C28.8996 17.4233 28.6458 17.6771 28.333 17.6771C28.0202 17.6771 27.7663 17.4233 27.7663 17.1105V15.9771C27.7663 15.6644 28.0202 15.4105 28.333 15.4105C28.6458 15.4105 28.8996 15.6644 28.8996 15.9771V17.1105ZM28.8996 13.7105C28.8996 14.0233 28.6458 14.2771 28.333 14.2771C28.0202 14.2771 27.7663 14.0233 27.7663 13.7105V12.5771C27.7663 12.2644 28.0202 12.0105 28.333 12.0105C28.6458 12.0105 28.8996 12.2644 28.8996 12.5771V13.7105ZM28.8996 10.3105C28.8996 10.6233 28.6458 10.8771 28.333 10.8771C28.0202 10.8771 27.7663 10.6233 27.7663 10.3105V9.17715C27.7663 8.86437 28.0202 8.6105 28.333 8.6105C28.6458 8.6105 28.8996 8.86437 28.8996 9.17715V10.3105ZM31.1663 30.7105C31.1663 31.0233 30.9124 31.2771 30.5996 31.2771C30.2869 31.2771 30.033 31.0233 30.033 30.7105V29.5771C30.033 29.2644 30.2869 29.0105 30.5996 29.0105C30.9124 29.0105 31.1663 29.2644 31.1663 29.5771V30.7105ZM31.1663 27.3105C31.1663 27.6233 30.9124 27.8771 30.5996 27.8771C30.2869 27.8771 30.033 27.6233 30.033 27.3105V26.1771C30.033 25.8644 30.2869 25.6105 30.5996 25.6105C30.9124 25.6105 31.1663 25.8644 31.1663 26.1771V27.3105ZM31.1663 23.9105C31.1663 24.2233 30.9124 24.4771 30.5996 24.4771C30.2869 24.4771 30.033 24.2233 30.033 23.9105V22.7771C30.033 22.4644 30.2869 22.2105 30.5996 22.2105C30.9124 22.2105 31.1663 22.4644 31.1663 22.7771V23.9105ZM31.1663 20.5105C31.1663 20.8233 30.9124 21.0771 30.5996 21.0771C30.2869 21.0771 30.033 20.8233 30.033 20.5105V19.3771C30.033 19.0644 30.2869 18.8105 30.5996 18.8105C30.9124 18.8105 31.1663 19.0644 31.1663 19.3771V20.5105ZM31.1663 17.1105C31.1663 17.4233 30.9124 17.6771 30.5996 17.6771C30.2869 17.6771 30.033 17.4233 30.033 17.1105V15.9771C30.033 15.6644 30.2869 15.4105 30.5996 15.4105C30.9124 15.4105 31.1663 15.6644 31.1663 15.9771V17.1105ZM31.1663 13.7105C31.1663 14.0233 30.9124 14.2771 30.5996 14.2771C30.2869 14.2771 30.033 14.0233 30.033 13.7105V12.5771C30.033 12.2644 30.2869 12.0105 30.5996 12.0105C30.9124 12.0105 31.1663 12.2644 31.1663 12.5771V13.7105ZM31.1663 10.3105C31.1663 10.6233 30.9124 10.8771 30.5996 10.8771C30.2869 10.8771 30.033 10.6233 30.033 10.3105V9.17715C30.033 8.86437 30.2869 8.6105 30.5996 8.6105C30.9124 8.6105 31.1663 8.86437 31.1663 9.17715V10.3105Z"/>
    </symbol>

    <symbol id="star" viewBox="0 0 20 19">
        <path d="M10 1.0183L12.7385 5.87682L12.8508 6.07617L13.0751 6.12143L18.5421 7.2245L14.7676 11.3303L14.6127 11.4988L14.639 11.7261L15.2793 17.2664L10.2081 14.9454L10 14.8501L9.79192 14.9454L4.72069 17.2664L5.36099 11.7261L5.38726 11.4988L5.23239 11.3303L1.45789 7.2245L6.92485 6.12143L7.14917 6.07617L7.26154 5.87682L10 1.0183Z"/>
    </symbol>


    <symbol id="close" viewBox="0 0 47.971 47.971">
        <path d="M28.228,23.986L47.092,5.122c1.172-1.171,1.172-3.071,0-4.242c-1.172-1.172-3.07-1.172-4.242,0L23.986,19.744L5.121,0.88
		c-1.172-1.172-3.07-1.172-4.242,0c-1.172,1.171-1.172,3.071,0,4.242l18.865,18.864L0.879,42.85c-1.172,1.171-1.172,3.071,0,4.242
		C1.465,47.677,2.233,47.97,3,47.97s1.535-0.293,2.121-0.879l18.865-18.864L42.85,47.091c0.586,0.586,1.354,0.879,2.121,0.879
		s1.535-0.293,2.121-0.879c1.172-1.171,1.172-3.071,0-4.242L28.228,23.986z"/>
    </symbol>

    <symbol id="delivery" viewBox="0 0 33 25">
        <path d="M1.15791 16.3567V2.31638C1.15791 1.53619 1.79036 0.903687 2.5706 0.903687H16.6037C17.3839 0.903687 18.0163 1.53619 18.0163 2.31638V16.3567C18.0163 16.6168 17.8055 16.8276 17.5454 16.8276H1.62881C1.36869 16.8276 1.15791 16.6168 1.15791 16.3567ZM12.4901 21.1666C12.4901 22.7848 11.1782 24.0966 9.56008 24.0966C7.94195 24.0966 6.63009 22.7848 6.63009 21.1666C6.63009 19.5484 7.94195 18.2366 9.56008 18.2366C11.1782 18.2366 12.4901 19.5484 12.4901 21.1666ZM11.025 21.1666C11.025 20.3575 10.3691 19.7016 9.56002 19.7016C8.75093 19.7016 8.09498 20.3575 8.09498 21.1666C8.09498 21.9757 8.75093 22.6316 9.56002 22.6316C10.3691 22.6316 11.025 21.9757 11.025 21.1666ZM7.03649 18.2365H0.470897C0.210833 18.2365 0 18.4474 0 18.7074V20.1361C0 20.3962 0.210833 20.607 0.470897 20.607H5.73353C5.87093 19.6642 6.34678 18.8315 7.03649 18.2365ZM27.8202 21.1666C27.8202 22.7848 26.5083 24.0966 24.8902 24.0966C23.272 24.0966 21.9602 22.7848 21.9602 21.1666C21.9602 19.5484 23.272 18.2366 24.8902 18.2366C26.5083 18.2365 27.8202 19.5484 27.8202 21.1666ZM26.3552 21.1666C26.3552 20.3575 25.6993 19.7016 24.8902 19.7016C24.081 19.7016 23.4252 20.3575 23.4252 21.1666C23.4252 21.9757 24.0811 22.6316 24.8902 22.6316C25.6993 22.6316 26.3552 21.9757 26.3552 21.1666ZM33 18.7074V20.1361C33 20.3962 32.7892 20.607 32.5291 20.607H28.7166C28.444 18.7368 26.8344 17.2948 24.8903 17.2948C22.9458 17.2948 21.3362 18.7369 21.0635 20.607H13.3866C13.2492 19.6643 12.7734 18.8315 12.0837 18.2365H19.3628V4.76743C19.3628 4.24731 19.7844 3.82564 20.3045 3.82564H24.7501C26.0018 3.82564 27.1718 4.44741 27.8722 5.48481L30.7381 9.72956C31.1585 10.3522 31.3831 11.0863 31.3831 11.8376V18.2365H32.5291C32.7892 18.2365 33 18.4474 33 18.7074ZM28.223 9.83827L25.9313 6.58179C25.843 6.45647 25.6994 6.3819 25.5462 6.3819H21.9714C21.7114 6.3819 21.5005 6.59273 21.5005 6.8528V10.1093C21.5005 10.3694 21.7114 10.5802 21.9714 10.5802H27.838C28.2194 10.5802 28.4426 10.1503 28.223 9.83827Z"/>
    </symbol>

    <symbol id="boxberry" viewBox="0 0 276.167 276.167">
        <path d="M33.144,2.471C15.336,2.471,0.85,16.958,0.85,34.765s14.48,32.293,32.294,32.293s32.294-14.486,32.294-32.293 S50.951,2.471,33.144,2.471z"/>
        <path d="M137.663,2.471c-17.807,0-32.294,14.487-32.294,32.294s14.487,32.293,32.294,32.293c17.808,0,32.297-14.486,32.297-32.293 S155.477,2.471,137.663,2.471z"/>
        <path d="M243.873,67.059c17.804,0,32.294-14.486,32.294-32.293S261.689,2.471,243.873,2.471s-32.294,14.487-32.294,32.294 S226.068,67.059,243.873,67.059z"/>
        <path d="M32.3,170.539c17.807,0,32.297-14.483,32.297-32.293c0-17.811-14.49-32.297-32.297-32.297S0,120.436,0,138.246 C0,156.056,14.493,170.539,32.3,170.539z"/>
        <path d="M136.819,170.539c17.804,0,32.294-14.483,32.294-32.293c0-17.811-14.478-32.297-32.294-32.297 c-17.813,0-32.294,14.486-32.294,32.297C104.525,156.056,119.012,170.539,136.819,170.539z"/>
        <path d="M243.038,170.539c17.811,0,32.294-14.483,32.294-32.293c0-17.811-14.483-32.297-32.294-32.297 s-32.306,14.486-32.306,32.297C210.732,156.056,225.222,170.539,243.038,170.539z"/>
        <path d="M33.039,209.108c-17.807,0-32.3,14.483-32.3,32.294c0,17.804,14.493,32.293,32.3,32.293s32.293-14.482,32.293-32.293 S50.846,209.108,33.039,209.108z"/>
        <path d="M137.564,209.108c-17.808,0-32.3,14.483-32.3,32.294c0,17.804,14.487,32.293,32.3,32.293 c17.804,0,32.293-14.482,32.293-32.293S155.368,209.108,137.564,209.108z"/>
        <path d="M243.771,209.108c-17.804,0-32.294,14.483-32.294,32.294c0,17.804,14.49,32.293,32.294,32.293 c17.811,0,32.294-14.482,32.294-32.293S261.575,209.108,243.771,209.108z"/>
    </symbol>

    <symbol id="sdek" viewBox="0 0 33 33">
        <path d="M20.625 10.3125H18.0469V10.8281C18.0468 10.9433 18.0082 11.0551 17.9371 11.1457C17.8661 11.2364 17.7668 11.3006 17.655 11.3283L15.5925 11.8439C15.552 11.8541 15.5105 11.8593 15.4688 11.8594C15.4008 11.8601 15.3335 11.8472 15.2706 11.8215C15.2077 11.7959 15.1506 11.7579 15.1026 11.7099C15.0546 11.6619 15.0166 11.6048 14.991 11.5419C14.9653 11.479 14.9524 11.4117 14.9531 11.3438V10.3125H12.375V17.0156H20.625V10.3125ZM15.4688 15.4688H13.4062V14.4375H15.4688V15.4688Z"/>
        <path d="M17.0156 8.76562H15.9844V10.6837L17.0156 10.4259V8.76562Z"/>
        <path d="M18.0469 8.76562H20.625V9.28125H18.0469V8.76562Z"/>
        <path d="M12.375 8.76562H14.9531V9.28125H12.375V8.76562Z"/>
        <path d="M16.5 30.6848C18.4594 28.4883 27.3281 18.248 27.3281 12.8906C27.3281 10.0188 26.1873 7.26465 24.1566 5.23398C22.126 3.20332 19.3718 2.0625 16.5 2.0625C13.6282 2.0625 10.874 3.20332 8.84336 5.23398C6.81269 7.26465 5.67188 10.0188 5.67188 12.8906C5.67188 18.248 14.5406 28.4883 16.5 30.6848ZM16.5 4.125C18.2337 4.125 19.9284 4.6391 21.3699 5.60227C22.8114 6.56545 23.9349 7.93446 24.5984 9.53617C25.2618 11.1379 25.4354 12.9004 25.0972 14.6007C24.759 16.3011 23.9241 17.863 22.6982 19.0889C21.4723 20.3148 19.9105 21.1496 18.2101 21.4878C16.5097 21.826 14.7472 21.6525 13.1455 20.989C11.5438 20.3256 10.1748 19.202 9.21165 17.7605C8.24847 16.319 7.73438 14.6243 7.73438 12.8906C7.73765 10.5668 8.66222 8.33917 10.3054 6.69601C11.9485 5.05284 14.1762 4.12827 16.5 4.125Z"/>
        <path d="M16.5 20.625C18.0297 20.625 19.5251 20.1714 20.797 19.3215C22.0689 18.4717 23.0602 17.2637 23.6456 15.8504C24.231 14.4372 24.3842 12.882 24.0858 11.3817C23.7873 9.8814 23.0507 8.50327 21.969 7.4216C20.8874 6.33993 19.5092 5.6033 18.0089 5.30487C16.5086 5.00643 14.9535 5.1596 13.5402 5.745C12.1269 6.33039 10.919 7.32173 10.0691 8.59364C9.21924 9.86555 8.76563 11.3609 8.76562 12.8906C8.76808 14.9412 9.58374 16.907 11.0337 18.3569C12.4836 19.8069 14.4495 20.6225 16.5 20.625ZM11.3438 8.25C11.3438 8.11325 11.3981 7.9821 11.4948 7.8854C11.5915 7.7887 11.7226 7.73438 11.8594 7.73438H21.1406C21.2774 7.73438 21.4085 7.7887 21.5052 7.8854C21.6019 7.9821 21.6562 8.11325 21.6562 8.25V17.5313C21.6562 17.668 21.6019 17.7992 21.5052 17.8959C21.4085 17.9926 21.2774 18.0469 21.1406 18.0469H11.8594C11.7226 18.0469 11.5915 17.9926 11.4948 17.8959C11.3981 17.7992 11.3438 17.668 11.3438 17.5313V8.25Z"/>
    </symbol>

    <symbol id="cash" viewBox="0 0 33 33">
        <path d="M17.8535 6.3369C17.8535 6.60238 17.8544 7.21482 18.8047 7.46109V5.21265C17.8544 5.45899 17.8535 6.07142 17.8535 6.3369Z"/>
        <path d="M20.7637 9.63269V11.8811C21.714 11.6349 21.7149 11.0224 21.7149 10.7569C21.7149 10.4913 21.714 9.8789 20.7637 9.63269Z"/>
        <path d="M19.7851 0C15.0723 0 11.2383 3.83406 11.2383 8.54681C11.2383 13.2596 15.0724 17.0936 19.7851 17.0936C24.4978 17.0936 28.3319 13.2596 28.3319 8.54681C28.3319 3.83406 24.4979 0 19.7851 0ZM22.3878 8.23344C23.2311 8.79598 23.6768 9.66855 23.6768 10.7568C23.6768 11.8451 23.2311 12.7177 22.3878 13.2802C21.941 13.5783 21.3974 13.7769 20.7653 13.8751V14.8391H18.8049V13.8751C18.1727 13.7769 17.6291 13.5783 17.1823 13.2802C16.339 12.7177 15.8933 11.8451 15.8933 10.7568H17.8537C17.8537 11.0223 17.8546 11.6348 18.8049 11.881V9.45514C18.1728 9.35692 17.6292 9.15827 17.1824 8.86024C16.3391 8.2977 15.8934 7.42513 15.8934 6.33684C15.8934 5.24855 16.3392 4.37598 17.1824 3.81343C17.6292 3.5154 18.1728 3.31676 18.8049 3.21853V2.25451H20.7654V3.21853C21.3975 3.31676 21.9411 3.51534 22.3879 3.81343C23.2312 4.37598 23.6769 5.24855 23.6769 6.33684H21.7165C21.7165 6.07136 21.7157 5.45892 20.7653 5.21265V7.63853C21.3974 7.73682 21.9411 7.9354 22.3878 8.23344Z"/>
        <path d="M0.0175781 19.7021V33.0001H4.85188V31.0397V30.4738V21.6626V19.8464V19.7021H0.0175781Z"/>
        <path d="M32.2544 22.8279L24.0974 25.0697L17.148 23.3748L17.6125 21.4703L24.0681 23.0447L24.0827 23.0406V20.523L15.0578 18.2631L6.8125 19.5422V19.702V21.5261V28.2811V30.2539L11.5775 29.7193L20.81 32.3111L32.9817 25.6026L32.2544 22.8279Z"/>
    </symbol>

    <symbol id="bank-card" viewBox="0 0 611.996 611.996">
        <path d="M588.63,113.193L213.812,33.871c-15.858-3.355-31.576,6.876-34.931,22.734l-7.121,45.762l432.477,91.519l7.121-45.762 C614.713,132.272,604.488,116.549,588.63,113.193z"/>
        <path d="M431.009,203.591c-4.378-15.766-20.854-25.085-36.615-20.714L323.24,202.63l-167.742-35.5l-18.448,87.165L21.786,286.287 c-15.76,4.372-25.079,20.848-20.708,36.609l64.958,234.078c4.378,15.76,20.855,25.085,36.615,20.708l372.608-103.403 c15.76-4.378,25.079-20.848,20.708-36.615l-11.15-40.184l41.789,8.835c15.858,3.361,31.576-6.87,34.931-22.728l26.439-124.937 L437.45,226.797L431.009,203.591z M474.04,322.559l9.215-43.552c1.384-6.521,7.85-10.727,14.37-9.35l43.552,9.221 c6.527,1.384,10.733,7.843,9.356,14.37l-9.215,43.552c-1.384,6.521-7.849,10.733-14.37,9.35l-43.552-9.215 C476.863,335.546,472.656,329.08,474.04,322.559z M28.27,309.646l103.115-28.606l243.299-67.517l26.181-7.274 c0.478-0.129,0.955-0.19,1.421-0.19c2.1,0,4.611,1.378,5.345,4.017l3.074,11.07l9.631,34.704L37.148,362.186l-12.705-45.768 C23.647,313.546,25.399,310.442,28.27,309.646z M472.601,444.141c0.49,1.776-0.024,3.245-0.545,4.164 c-0.514,0.918-1.506,2.119-3.282,2.608L96.173,554.316c-0.471,0.129-0.955,0.196-1.421,0.196c-2.1,0-4.611-1.384-5.345-4.023 L51.519,413.955l383.188-106.342l23.371,84.208L472.601,444.141z"/>
        <path d="M156.379,453.484c-1.788-6.429-8.499-10.225-14.928-8.443l-43.515,12.08c-6.423,1.782-10.225,8.499-8.437,14.928 l12.074,43.509c1.788,6.429,8.499,10.225,14.928,8.437l43.515-12.074c6.429-1.782,10.225-8.499,8.443-14.928L156.379,453.484z"/>
    </symbol>

    <symbol id="acquiring" viewBox="0 0 27 30">
        <path d="M22.4447 3.90369H21.4688V20.4942H22.4447V3.90369Z"/>
        <path d="M24.7862 3.90369H23.4219V20.4942H24.7862C25.6484 20.4942 26.3496 19.793 26.3496 18.9313V5.46661C26.3496 4.60488 25.6484 3.90369 24.7862 3.90369ZM24.8857 9.75916C24.6164 9.75916 24.3978 9.54055 24.3978 9.2712C24.3978 9.00185 24.6164 8.78324 24.8857 8.78324C25.1551 8.78324 25.3737 9.00185 25.3737 9.2712C25.3737 9.54055 25.1551 9.75916 24.8857 9.75916ZM24.8857 7.31938C24.6164 7.31938 24.3978 7.10077 24.3978 6.83142C24.3978 6.56207 24.6164 6.34347 24.8857 6.34347C25.1551 6.34347 25.3737 6.56207 25.3737 6.83142C25.3737 7.10077 25.1551 7.31938 24.8857 7.31938Z"/>
        <path d="M19.5182 2.79745C19.5182 1.25502 18.2632 0 16.7208 0H2.79745C1.25502 0 0 1.25502 0 2.79745V26.4794C0 28.0223 1.25502 29.2773 2.79745 29.2773H16.7208C18.2632 29.2773 19.5182 28.0223 19.5182 26.4799V20.4941H20.4941V3.90365H19.5182V2.79745ZM1.95182 2.43978C1.95182 2.16994 2.17043 1.95182 2.43978 1.95182H5.36751C5.63686 1.95182 5.85547 2.16994 5.85547 2.43978C5.85547 2.70962 5.63686 2.92773 5.36751 2.92773H2.43978C2.17043 2.92773 1.95182 2.70962 1.95182 2.43978ZM6.83138 27.3255H2.92773V23.9098H6.83138V27.3255ZM6.83138 22.9339H2.92773V20.0062H6.83138V22.9339ZM6.83138 19.0303H2.92773V16.1025H6.83138V19.0303ZM6.83138 15.1266H2.92773V11.7109H6.83138V15.1266ZM11.7109 27.3255H7.80729V23.9098H11.7109V27.3255ZM11.7109 22.9339H7.80729V20.0062H11.7109V22.9339ZM11.7109 19.0303H7.80729V16.1025H11.7109V19.0303ZM11.7109 15.1266H7.80729V11.7109H11.7109V15.1266ZM16.5905 27.3255H12.6868V20.0062H16.5905V27.3255ZM16.5905 19.0303H12.6868V16.1025H16.5905V19.0303ZM16.5905 15.1266H12.6868V11.7109H16.5905V15.1266ZM17.0784 10.735H2.43978V4.3916H17.0784V10.735Z"/>
        <path d="M10.2478 9.27112C10.3728 9.27112 10.4977 9.2233 10.5928 9.12815L11.0808 8.64019C11.2716 8.4494 11.2716 8.14101 11.0808 7.95022C10.89 7.75943 10.5816 7.75943 10.3908 7.95022L9.90286 8.43818C9.71207 8.62897 9.71207 8.93736 9.90286 9.12815C9.99801 9.2233 10.1229 9.27112 10.2478 9.27112Z"/>
        <path d="M7.80839 7.31934V8.7832C7.80839 9.05304 8.02699 9.27116 8.29635 9.27116C8.5657 9.27116 8.7843 9.05304 8.7843 8.7832V6.34342C8.7843 6.27999 8.77113 6.21656 8.74673 6.15703C8.69745 6.03748 8.60229 5.94233 8.48275 5.89304C8.36368 5.84376 8.22901 5.84376 8.10995 5.89304C8.04993 5.91793 7.99625 5.95355 7.95087 5.99893L7.46341 6.4864C7.27261 6.67719 7.27261 6.98557 7.46341 7.17637C7.55856 7.27152 7.68347 7.31934 7.80839 7.31934Z"/>
        <path d="M12.199 7.31934V8.7832C12.199 9.05304 12.4176 9.27116 12.687 9.27116C12.9563 9.27116 13.1749 9.05304 13.1749 8.7832V6.34342C13.1749 6.27999 13.1618 6.21656 13.1374 6.15703C13.0881 6.03748 12.9929 5.94233 12.8734 5.89304C12.7543 5.84376 12.6196 5.84376 12.5006 5.89304C12.4406 5.91793 12.3869 5.95355 12.3415 5.99893L11.854 6.4864C11.6632 6.67719 11.6632 6.98557 11.854 7.17637C11.9492 7.27152 12.0741 7.31934 12.199 7.31934Z"/>
        <path d="M14.1521 7.31934V8.7832C14.1521 9.05304 14.3707 9.27116 14.6401 9.27116C14.9094 9.27116 15.1281 9.05304 15.1281 8.7832V6.34342C15.1281 6.27999 15.1149 6.21656 15.0905 6.15703C15.0412 6.03748 14.946 5.94233 14.8265 5.89304C14.7074 5.84376 14.5728 5.84376 14.4537 5.89304C14.3937 5.91793 14.34 5.95355 14.2946 5.99893L13.8072 6.4864C13.6164 6.67719 13.6164 6.98557 13.8072 7.17637C13.9023 7.27152 14.0272 7.31934 14.1521 7.31934Z"/>
    </symbol>

    <symbol id="cash-hend" viewBox="0 0 24 34">
        <path d="M22.152 15.0735C21.8203 14.8124 18.8917 11.5874 17.2333 10.0843C17.2263 10.0772 17.2263 10.0772 17.2263 10.0702V3.12619C17.2263 1.40432 15.8219 0 14.1001 0H3.86056C2.25865 0 0.953125 1.31258 0.953125 2.90743V19.1947C0.953125 20.9166 2.35744 22.3209 4.07932 22.3209H7.05732H7.8124C7.93943 22.3209 8.04528 22.208 8.03117 22.0809L7.86886 20.6978C7.85474 20.5849 7.763 20.5073 7.65009 20.5073H7.37488H7.20551C7.08555 20.5073 6.98675 20.4085 6.98675 20.2885V1.78539C6.98675 1.66542 7.08555 1.56663 7.20551 1.56663H14.1212C14.8199 1.56663 15.3915 2.13823 15.3915 2.83686V17.9527V19.4417C15.3915 19.9215 15.0598 20.3308 14.6152 20.4579C14.6082 20.4579 14.6082 20.4579 14.6011 20.4579C13.846 20.0486 12.9569 18.2985 12.8228 18.0232C12.8087 18.0021 12.8016 17.9738 12.8016 17.9527C12.7522 17.5081 12.2512 13.2034 9.95769 13.2034C9.89418 13.2034 9.83067 13.2034 9.76716 13.2105C9.76716 13.2105 7.93237 13.3657 9.4496 18.5949C9.4496 18.609 9.45665 18.616 9.45665 18.6301L10.1271 24.4238C10.1271 24.4309 10.1271 24.4379 10.1341 24.4521C10.1906 24.6708 10.9527 27.6276 12.9216 29.7235C12.9569 29.7659 12.978 29.8153 12.978 29.8717V30.3728C12.978 30.3869 12.971 30.3939 12.9569 30.3939H12.7804C12.35 30.3939 11.9971 30.7468 11.9971 31.1773V33.2167C11.9971 33.6472 12.35 34 12.7804 34H21.0864C21.5168 34 21.8697 33.6472 21.8697 33.2167V31.1914C21.8697 30.7609 21.5168 30.4081 21.0864 30.4081C21.0723 30.4081 21.0652 30.401 21.0652 30.3869C21.3404 27.8323 22.3284 19.0959 22.8577 18.4114C22.8718 18.3902 22.8859 18.369 22.8929 18.3408C22.9847 18.0232 23.4434 16.0826 22.152 15.0735ZM4.22046 20.3026C4.22046 20.4155 4.12872 20.5002 4.02286 20.5002C3.33129 20.5002 2.76674 19.9357 2.76674 19.2441V2.82275C2.76674 2.13117 3.33129 1.56663 4.02286 1.56663C4.13577 1.56663 4.22046 1.65836 4.22046 1.76422V20.3026Z"/>
    </symbol>

    <symbol id="comment" viewBox="0 0 33 33">
        <path d="M28.3169 20.0968C27.9395 20.0968 27.6337 20.3947 27.6337 20.7624V26.6719C27.6324 27.7742 26.7157 28.6676 25.5842 28.6686H6.41575C5.28428 28.6676 4.36763 27.7742 4.3663 26.6719V9.32784C4.36763 8.22576 5.28428 7.33244 6.41575 7.33114H12.4814C12.8587 7.33114 13.1645 7.03319 13.1645 6.66557C13.1645 6.29821 12.8587 6 12.4814 6H6.41575C4.53015 6.00208 3.00213 7.49077 3 9.32784V26.6722C3.00213 28.5092 4.53015 29.9979 6.41575 30H25.5842C27.4699 29.9979 28.9979 28.5092 29 26.6722V20.7624C29 20.3947 28.6942 20.0968 28.3169 20.0968Z"/>
        <path d="M28.3026 3.8986C27.1044 2.70047 25.1618 2.70047 23.9635 3.8986L11.7995 16.0616C11.7161 16.1449 11.6559 16.2483 11.6245 16.3617L10.0249 22.1361C9.9591 22.3729 10.0259 22.6264 10.1996 22.8003C10.3735 22.9739 10.6271 23.0408 10.8638 22.9753L16.6388 21.3755C16.7522 21.3441 16.8556 21.2839 16.9389 21.2006L29.1027 9.03734C30.2991 7.83841 30.2991 5.89753 29.1027 4.6986L28.3026 3.8986ZM13.2851 16.5047L23.2404 6.55L26.4511 9.76038L16.4955 19.7151L13.2851 16.5047ZM12.6438 17.7915L15.2088 20.3566L11.6607 21.3396L12.6438 17.7915ZM28.1386 8.0733L27.4155 8.79633L24.2046 5.58568L24.9279 4.86265C25.5935 4.19714 26.6727 4.19714 27.3382 4.86265L28.1386 5.66265C28.8031 6.32896 28.8031 7.40725 28.1386 8.0733Z"/>
    </symbol>

</svg>

